<?xml version="1.0" standalone="no"?>
<!DOCTYPE svg PUBLIC "-//W3C//DTD SVG 20010904//EN"
 "http://www.w3.org/TR/2001/REC-SVG-20010904/DTD/svg10.dtd">
<svg version="1.0" xmlns="http://www.w3.org/2000/svg"
 width="420.000000pt" height="594.000000pt" viewBox="0 0 420.000000 594.000000"
 preserveAspectRatio="xMidYMid meet">

<g transform="translate(0.000000,594.000000) scale(0.100000,-0.100000)"
fill="#000000" stroke="none">
<path d="M1846 3533 c52 -153 108 -320 125 -370 l30 -93 88 0 88 0 32 98 c46
137 75 212 82 212 8 0 38 -107 50 -179 20 -124 -21 -204 -118 -232 -59 -17
-213 -18 -272 0 -24 7 -62 30 -84 51 -39 36 -41 41 -45 107 -4 63 0 79 32 153
20 46 36 84 36 85 0 1 -21 10 -47 20 -27 10 -70 28 -98 40 -92 42 -89 42 -118
-22 -36 -82 -46 -126 -53 -223 -14 -193 54 -340 199 -433 84 -54 138 -68 277
-74 151 -6 222 5 315 51 127 63 189 146 222 299 14 68 15 91 5 170 -6 51 -21
120 -33 155 l-21 62 -119 0 c-90 0 -119 3 -119 13 0 7 20 71 45 142 26 72 54
156 64 188 l19 57 -77 0 -76 0 -17 -43 c-9 -23 -33 -96 -53 -162 -20 -66 -44
-142 -54 -170 -10 -27 -27 -87 -37 -132 -10 -46 -22 -83 -25 -83 -4 0 -9 18
-13 40 -3 22 -12 59 -20 82 -7 24 -20 66 -29 93 -8 28 -38 123 -67 213 l-52
162 -78 0 -79 0 95 -277z m-96 -160 c39 -15 70 -31 70 -36 0 -5 -11 -41 -25
-79 -58 -162 -13 -273 135 -329 59 -22 241 -27 299 -7 62 21 115 62 141 108
20 36 24 58 24 115 -1 60 -8 97 -40 208 -5 15 3 17 74 17 l80 0 18 -72 c25
-97 25 -263 0 -333 -60 -166 -205 -249 -436 -250 -131 0 -222 23 -307 79 -150
98 -207 310 -139 519 16 48 31 87 33 87 2 0 35 -12 73 -27z"/>
</g>
</svg>
